<?xml version="1.0" encoding="UTF-8" standalone="no"?>
<svg
   xmlns:dc="http://purl.org/dc/elements/1.1/"
   xmlns:cc="http://creativecommons.org/ns#"
   xmlns:rdf="http://www.w3.org/1999/02/22-rdf-syntax-ns#"
   xmlns:svg="http://www.w3.org/2000/svg"
   xmlns="http://www.w3.org/2000/svg"
   width="210mm"
   height="297mm"
   viewBox="0 0 210 297"
   version="1.1"
   id="svgTreeShape">
  <defs
     id="defs40" />
  <metadata
     id="metadata43">
    <rdf:RDF>
      <cc:Work
         rdf:about="">
        <dc:format>image/svg+xml</dc:format>
        <dc:type
           rdf:resource="http://purl.org/dc/dcmitype/StillImage" />
        <dc:title></dc:title>
      </cc:Work>
    </rdf:RDF>
  </metadata>
  <g
     id="treeShape">
    <path
       style="fill:none;stroke:#000000;stroke-width:0.264583px;stroke-linecap:butt;stroke-linejoin:miter;stroke-opacity:1"
       d="m 105.3138,292.70029 c 2.69671,-0.61279 5.17236,-2.07933 7.11125,-4.05124 1.9389,-1.9719 3.34963,-4.43552 4.2099,-7.06376 1.72053,-5.2565 1.23616,-11.02501 -0.26919,-16.34712 -1.50535,-5.32211 -3.98313,-10.30717 -6.28159,-15.33788 -2.29846,-5.0307 -4.44944,-10.20858 -5.23453,-15.68348 -0.75023,-5.23181 -0.22797,-10.55089 -0.25186,-15.83616 -0.0239,-5.28527 -0.66634,-10.77638 -3.46137,-15.26219 -2.074026,-3.32865 -5.287054,-5.92977 -8.968834,-7.28107 -3.681779,-1.3513 -7.808886,-1.44729 -11.554507,-0.28461 -3.745621,1.16268 -7.089018,3.57463 -9.387395,6.75251 -2.298378,3.17789 -3.541456,7.10278 -3.508394,11.02457 0.02792,3.31143 0.956809,6.6109 2.660586,9.45053 1.703777,2.83963 4.17795,5.21193 7.086662,6.79488 2.658339,-0.093 5.245585,-1.44375 6.841565,-3.57172 1.59598,-2.12798 2.168226,-4.98993 1.513214,-7.56799 -0.579607,-2.28127 -2.022046,-4.22619 -3.182178,-6.27418 -0.580067,-1.02399 -1.097548,-2.09359 -1.396073,-3.23197 -0.298525,-1.13839 -0.370366,-2.35407 -0.06329,-3.49018 0.311706,-1.15326 1.011666,-2.19103 1.936435,-2.94731 0.924768,-0.75628 2.067411,-1.23338 3.249756,-1.40433 1.182344,-0.17094 2.40186,-0.0401 3.536251,0.33452 1.134391,0.37459 2.18413,0.98954 3.096248,1.76103 1.824236,1.54298 3.07288,3.68115 3.871161,5.93313 0.79828,2.25197 1.173727,4.62946 1.483867,6.99852 0.564033,4.30847 0.925205,8.67562 0.464156,12.99632 -0.636143,5.96158 -2.813922,11.64316 -5.188467,17.14832 -2.374544,5.50515 -4.977675,10.94732 -6.543763,16.73459 -1.566088,5.78727 -2.043569,12.04005 -0.143269,17.72635 0.95015,2.84315 2.493927,5.50499 4.607197,7.63111 2.11327,2.12612 4.805444,3.70159 7.732455,4.34881 1.979911,0.4378 4.056681,0.44932 6.034011,0 z"
       id="path48" />
    <path
       style="fill:none;stroke:#000000;stroke-width:0.418406px;stroke-linecap:butt;stroke-linejoin:miter;stroke-opacity:1"
       d="m 105.3138,292.70029 c -4.26525,-0.96909 -8.181331,-3.28725 -11.249531,-6.40457 -3.0682,-3.11732 -5.302052,-7.01225 -6.665809,-11.16817 -2.727515,-8.31184 -1.96948,-17.43633 0.406396,-25.85543 2.375876,-8.4191 6.292489,-16.30509 9.931206,-24.26033 3.638718,-7.95524 7.049918,-16.13959 8.311748,-24.79603 1.20507,-8.26706 0.40958,-16.67651 0.45718,-25.0308 0.0476,-8.35429 1.04856,-17.02483 5.41485,-24.14747 3.26699,-5.32937 8.3503,-9.52047 14.20131,-11.72071 5.85101,-2.20024 12.43298,-2.39764 18.40821,-0.56135 5.97523,1.8363 11.30806,5.69354 14.93061,10.7879 3.62255,5.09436 5.51471,11.39463 5.30817,17.64225 -0.25131,7.60194 -3.65174,15.05175 -9.23028,20.22211 -5.57854,5.17035 -13.26478,7.996 -20.86389,7.67005 -2.44523,-6.39034 -1.89208,-13.8578 1.46801,-19.81811 2.28716,-4.05709 5.72535,-7.33262 8.40687,-11.14058 1.34075,-1.90398 2.50002,-3.96154 3.16622,-6.1929 0.66621,-2.23135 0.81953,-4.65211 0.17098,-6.88866 -0.61863,-2.13337 -1.95923,-4.03728 -3.70838,-5.40639 -1.74915,-1.36911 -3.8938,-2.20811 -6.09901,-2.47459 -2.20521,-0.26649 -4.46643,0.0312 -6.55829,0.77827 -2.09185,0.74708 -4.01543,1.93726 -5.67698,3.41145 -3.32309,2.94837 -5.55308,6.97351 -6.9565,11.18852 -1.40343,4.21501 -2.03091,8.64433 -2.56302,13.05486 -0.82283,6.82021 -1.43367,13.71817 -0.734,20.55211 0.96533,9.42878 4.38937,18.42076 8.13616,27.12681 3.7468,8.70606 7.86646,17.30696 10.35219,26.45326 2.48573,9.14631 3.25666,19.02976 0.26528,28.02339 -1.49569,4.49682 -3.93086,8.70826 -7.26832,12.07275 -3.33747,3.36448 -7.59225,5.85831 -12.21932,6.88236 -3.13088,0.69292 -6.41512,0.71046 -9.54206,0 z"
       id="path48-0" />
    <path
       style="fill:none;stroke:#000000;stroke-width:0.418406px;stroke-linecap:butt;stroke-linejoin:miter;stroke-opacity:1"
       d="m 105.3138,292.70029 c 4.26525,-0.96909 8.18133,-3.28725 11.24953,-6.40457 3.0682,-3.11732 5.30205,-7.01225 6.66581,-11.16817 2.72751,-8.31184 1.96948,-17.43633 -0.4064,-25.85543 -2.37587,-8.4191 -6.29249,-16.30509 -9.9312,-24.26033 -3.63872,-7.95524 -7.04992,-16.13959 -8.31175,-24.79603 -1.20507,-8.26706 -0.40958,-16.67651 -0.45718,-25.0308 -0.0476,-8.35429 -1.04856,-17.02483 -5.414851,-24.14747 -3.266988,-5.32937 -8.3503,-9.52047 -14.20131,-11.72071 -5.851009,-2.20024 -12.432976,-2.39764 -18.408208,-0.56135 -5.975233,1.8363 -11.308062,5.69354 -14.930612,10.7879 -3.62255,5.09436 -5.514706,11.39463 -5.30817,17.64225 0.251308,7.60194 3.651736,15.05175 9.230277,20.22211 5.578541,5.17036 13.264784,7.996 20.863893,7.67005 2.445229,-6.39034 1.892083,-13.8578 -1.46801,-19.81811 -2.287162,-4.05709 -5.725349,-7.33262 -8.406865,-11.14058 -1.340758,-1.90398 -2.500022,-3.96154 -3.16623,-6.1929 -0.666208,-2.23135 -0.81953,-4.65211 -0.170975,-6.88866 0.618635,-2.13337 1.959228,-4.03728 3.708377,-5.40639 1.74915,-1.36911 3.893803,-2.20811 6.099015,-2.47459 2.205212,-0.26649 4.466432,0.0312 6.558286,0.77827 2.091853,0.74708 4.01543,1.93726 5.676978,3.41145 3.323097,2.94837 5.553086,6.97351 6.956508,11.18852 1.403423,4.21501 2.030906,8.64433 2.563016,13.05486 0.822827,6.82021 1.43367,13.71817 0.734,20.55211 -0.965333,9.42878 -4.389369,18.42076 -8.136163,27.12681 -3.746793,8.70606 -7.866453,17.30696 -10.352187,26.45326 -2.485734,9.14631 -3.25666,19.02976 -0.265277,28.02339 1.495692,4.49682 3.930853,8.70826 7.268322,12.07275 3.337468,3.36448 7.592245,5.85831 12.219315,6.88236 3.130876,0.69292 6.415121,0.71046 9.542061,0 z"
       id="path48-0-4" />
    <path
       style="fill:none;stroke:#000000;stroke-width:0.264583px;stroke-linecap:butt;stroke-linejoin:miter;stroke-opacity:1"
       d="m 105.3138,292.70029 c -2.69671,-0.61279 -5.17236,-2.07933 -7.111253,-4.05124 -1.938896,-1.9719 -3.349629,-4.43552 -4.209896,-7.06376 -1.720532,-5.2565 -1.236162,-11.02501 0.269189,-16.34712 1.505351,-5.32211 3.983127,-10.30717 6.28159,-15.33788 2.29846,-5.0307 4.44944,-10.20858 5.23453,-15.68348 0.75023,-5.23181 0.22797,-10.55089 0.25186,-15.83616 0.0239,-5.28527 0.66634,-10.77638 3.46137,-15.26219 2.07403,-3.32865 5.28705,-5.92977 8.96883,-7.28107 3.68178,-1.3513 7.80889,-1.44729 11.55451,-0.28461 3.74562,1.16268 7.08902,3.57462 9.3874,6.75251 2.29837,3.17789 3.54145,7.10278 3.50839,11.02457 -0.0279,3.31143 -0.95681,6.6109 -2.66059,9.45053 -1.70377,2.83963 -4.17795,5.21193 -7.08666,6.79488 -2.65834,-0.093 -5.24559,-1.44375 -6.84157,-3.57172 -1.59598,-2.12798 -2.16822,-4.98993 -1.51321,-7.56799 0.57961,-2.28127 2.02205,-4.22619 3.18218,-6.27418 0.58007,-1.02399 1.09755,-2.09359 1.39608,-3.23197 0.29852,-1.13839 0.37036,-2.35407 0.0633,-3.49018 -0.31171,-1.15326 -1.01167,-2.19103 -1.93643,-2.94731 -0.92477,-0.75628 -2.06742,-1.23338 -3.24976,-1.40433 -1.18234,-0.17094 -2.40186,-0.0401 -3.53625,0.33452 -1.13439,0.37459 -2.18413,0.98953 -3.09625,1.76103 -1.82424,1.54298 -3.07288,3.68115 -3.87116,5.93313 -0.79828,2.25197 -1.17373,4.62946 -1.48387,6.99852 -0.56403,4.30847 -0.92521,8.67562 -0.46416,12.99632 0.63614,5.96158 2.81392,11.64316 5.18846,17.14832 2.37455,5.50515 4.97768,10.94732 6.54377,16.73459 1.56609,5.78727 2.04357,12.04005 0.14327,17.72635 -0.95015,2.84315 -2.49393,5.50499 -4.6072,7.63111 -2.11326,2.12612 -4.80544,3.70159 -7.73245,4.34881 -1.97991,0.4378 -4.05668,0.44932 -6.03401,0 z"
       id="path48-3" />
    <path
       style="fill:none;stroke:#000000;stroke-width:0.513577px;stroke-linecap:butt;stroke-linejoin:miter;stroke-opacity:1"
       d="m 105.3138,292.70029 c 5.23453,-1.18948 10.03997,-4.03615 13.80353,-7.86379 3.76355,-3.82763 6.5019,-8.60971 8.17175,-13.71135 3.3397,-10.20328 2.3995,-21.40045 -0.52251,-31.7311 -2.92201,-10.33065 -7.73158,-20.00706 -12.19308,-29.77208 -4.4615,-9.76501 -8.63673,-19.81569 -10.16066,-30.44293 -1.45627,-10.15537 -0.44251,-20.48015 -0.48887,-30.7393 -0.0464,-10.25914 -1.29344,-20.91784 -6.71882,-29.62516 -4.025856,-6.46119 -10.262611,-11.51016 -17.409249,-14.13314 -7.146637,-2.62298 -15.157692,-2.80932 -22.42825,-0.55246 -7.270559,2.25687 -13.760366,6.93865 -18.221703,13.1072 -4.461338,6.16854 -6.874253,13.78708 -6.810076,21.39959 0.05419,6.42776 1.857248,12.8323 5.164419,18.34425 3.307172,5.51195 8.109745,10.11679 13.755795,13.18943 5.160058,-0.18061 10.182116,-2.80244 13.280045,-6.93302 3.097929,-4.13057 4.208704,-9.68586 2.937271,-14.69009 -1.125065,-4.42814 -3.924958,-8.20339 -6.17687,-12.1787 -1.125956,-1.98765 -2.130428,-4.06383 -2.709889,-6.27352 -0.57946,-2.2097 -0.718906,-4.56945 -0.122852,-6.77473 0.605049,-2.23856 1.963731,-4.25296 3.758782,-5.72096 1.795051,-1.46801 4.013015,-2.39409 6.30804,-2.72591 2.295026,-0.33182 4.662204,-0.0778 6.864149,0.64933 2.201945,0.7271 4.239572,1.92077 6.010065,3.4183 3.540988,2.99506 5.964707,7.14542 7.514234,11.51668 1.549527,4.37127 2.2783,8.98616 2.880309,13.5847 1.094839,8.36309 1.795911,16.84009 0.90098,25.22693 -1.2348,11.57192 -5.462045,22.60034 -10.071232,33.28629 -4.609186,10.68595 -9.662079,21.24966 -12.701988,32.48323 -3.039908,11.23357 -3.966742,23.37073 -0.278106,34.40831 1.844318,5.51879 4.840916,10.68563 8.942946,14.81261 4.102029,4.12697 9.32776,7.18509 15.00933,8.44139 3.843167,0.8498 7.87436,0.87217 11.71251,0 z"
       id="path48-4" />
    <path
       style="fill:none;stroke:#000000;stroke-width:0.81216px;stroke-linecap:butt;stroke-linejoin:miter;stroke-opacity:1"
       d="m 105.3138,292.70029 c -8.279209,-1.88108 -15.880636,-6.38082 -21.836264,-12.43179 -5.955628,-6.05097 -10.291719,-13.61135 -12.938885,-21.67834 -5.294331,-16.13397 -3.822924,-33.84535 0.788846,-50.18752 4.61177,-16.34217 12.214238,-31.64952 19.277286,-47.09129 7.063049,-15.44178 13.684477,-31.32828 16.133787,-48.13113 2.33914,-16.04704 0.79502,-32.370484 0.88744,-48.586851 0.0924,-16.216366 2.03533,-33.046606 10.51066,-46.872229 6.34149,-10.3447399 16.20862,-18.48000569 27.56591,-22.750852 11.35729,-4.2708463 24.13343,-4.6540218 35.73185,-1.0896288 11.59842,3.564393 21.94987,11.0516176 28.98154,20.9401878 7.03167,9.888571 10.7045,22.117926 10.3036,34.245063 -0.48781,14.755998 -7.08832,29.216694 -17.91673,39.25278 -10.8284,10.036086 -25.74803,15.52089 -40.49853,14.8882 -4.7464,-12.404168 -3.6727,-26.899133 2.84952,-38.46859 4.43957,-7.875144 11.11337,-14.233226 16.31842,-21.624788 2.60252,-3.695782 4.85275,-7.689673 6.14591,-12.020913 1.29317,-4.33124 1.59078,-9.030135 0.33188,-13.371459 -1.20082,-4.141047 -3.80302,-7.836702 -7.19826,-10.494251 -3.39525,-2.657549 -7.55819,-4.2861188 -11.83869,-4.8033921 -4.2805,-0.5172733 -8.66972,0.060553 -12.73018,1.5106929 -4.06045,1.4501398 -7.79428,3.7603759 -11.01948,6.6218972 -6.4504,5.723044 -10.779,13.536169 -13.50316,21.71785 -2.72415,8.181682 -3.94215,16.779354 -4.97502,25.340553 -1.59717,13.238593 -2.78287,26.628091 -1.42475,39.89334 1.87379,18.30205 8.52013,35.75621 15.79296,52.65537 7.27284,16.89917 15.26944,33.59423 20.09445,51.34797 4.82501,17.75373 6.32144,36.93832 0.51492,54.3957 -2.90326,8.7287 -7.63011,16.90344 -14.10841,23.43418 -6.4783,6.53075 -14.73718,11.37147 -23.7187,13.35924 -6.07729,1.34501 -12.45227,1.37905 -18.52192,0 z"
       id="path48-0-9" />
    <path
       style="fill:none;stroke:#000000;stroke-width:0.81216px;stroke-linecap:butt;stroke-linejoin:miter;stroke-opacity:1"
       d="m 105.3138,292.70029 c 8.27921,-1.88108 15.88064,-6.38082 21.83626,-12.43179 5.95563,-6.05097 10.29172,-13.61135 12.93889,-21.67834 5.29433,-16.13397 3.82292,-33.84535 -0.78885,-50.18752 -4.61177,-16.34217 -12.21424,-31.64952 -19.27728,-47.09129 -7.06305,-15.44178 -13.68448,-31.32828 -16.13379,-48.13113 C 101.54989,97.13318 103.09401,80.809736 103.0016,64.593369 102.90918,48.377003 100.96626,31.546763 92.49093,17.72114 86.149437,7.3764009 76.28231,-0.75886415 64.92502,-5.0297099 53.56773,-9.3005556 40.791592,-9.6837309 29.193175,-6.1193379 17.594758,-2.5549449 7.2432994,4.9322794 0.21163141,14.820849 -6.8200366,24.709419 -10.492868,36.938773 -10.091965,49.06591 -9.6041559,63.821908 -3.0036472,78.282604 7.8247602,88.31869 18.653168,98.354777 33.572799,103.83958 48.323295,103.20689 53.069689,90.80272 51.995987,76.307757 45.473767,64.7383 41.034197,56.863157 34.360394,50.505075 29.155351,43.113512 26.55283,39.41773 24.302604,35.423839 23.009439,31.092599 21.716274,26.761359 21.418664,22.062464 22.677561,17.72114 c 1.200821,-4.141046 3.803022,-7.8367013 7.198264,-10.4942499 3.395242,-2.6575487 7.55819,-4.2861182 11.838689,-4.8033913 4.280498,-0.5172731 8.669713,0.060554 12.730172,1.5106933 4.06046,1.4501399 7.794281,3.7603759 11.019484,6.6218969 6.450405,5.723043 10.778997,13.536169 13.503156,21.71785 2.724158,8.181681 3.942156,16.779352 4.975024,25.340551 1.597174,13.238593 2.782868,26.628091 1.42475,39.89334 -1.873793,18.30205 -8.52013,35.75621 -15.792964,52.65537 -7.272835,16.89917 -15.269433,33.59423 -20.094447,51.34797 -4.825013,17.75373 -6.321441,36.93832 -0.514919,54.3957 2.903261,8.7287 7.63011,16.90344 14.108412,23.43418 6.478301,6.53075 14.737174,11.37147 23.718698,13.35924 6.077285,1.34501 12.452269,1.37905 18.52192,0 z"
       id="path48-0-4-1" />
    <path
       style="fill:none;stroke:#000000;stroke-width:0.513577px;stroke-linecap:butt;stroke-linejoin:miter;stroke-opacity:1"
       d="m 105.3138,292.70029 c -5.23453,-1.18948 -10.039971,-4.03615 -13.803528,-7.86379 -3.763557,-3.82763 -6.501907,-8.60971 -8.171755,-13.71135 -3.339695,-10.20328 -2.399494,-21.40045 0.522516,-31.7311 2.92201,-10.33065 7.731576,-20.00706 12.193078,-29.77208 4.461499,-9.76501 8.636729,-19.81569 10.160659,-30.44293 1.45627,-10.15537 0.44251,-20.48015 0.48888,-30.7393 0.0464,-10.25914 1.29343,-20.91784 6.71881,-29.62516 4.02586,-6.46119 10.26261,-11.51017 17.40925,-14.13315 7.14664,-2.62299 15.1577,-2.80933 22.42826,-0.55246 7.27057,2.25686 13.76038,6.93865 18.22171,13.1072 4.46134,6.16854 6.87426,13.78708 6.81008,21.3996 -0.0542,6.42776 -1.85725,12.83231 -5.16443,18.34426 -3.30717,5.51195 -8.10975,10.11678 -13.7558,13.18942 -5.16006,-0.18061 -10.18212,-2.80244 -13.28005,-6.93302 -3.09793,-4.13057 -4.20871,-9.68586 -2.93727,-14.69009 1.12507,-4.42814 3.92496,-8.20339 6.17688,-12.1787 1.12596,-1.98765 2.13043,-4.06382 2.70989,-6.27352 0.57946,-2.2097 0.71891,-4.56945 0.12286,-6.77473 -0.60505,-2.23856 -1.96373,-4.25296 -3.75878,-5.72097 -1.79505,-1.46801 -4.01302,-2.3941 -6.30804,-2.72591 -2.29503,-0.33182 -4.66221,-0.0778 -6.86416,0.64932 -2.20194,0.72711 -4.23957,1.92077 -6.01007,3.41831 -3.54099,2.99506 -5.96471,7.14542 -7.51424,11.51668 -1.54953,4.37127 -2.2783,8.98617 -2.88031,13.58471 -1.09484,8.36309 -1.79591,16.84009 -0.90098,25.22693 1.2348,11.57192 5.46205,22.60034 10.07123,33.28629 4.60919,10.68595 9.66208,21.24966 12.70199,32.48323 3.03991,11.23357 3.96674,23.37073 0.27811,34.40831 -1.84432,5.51879 -4.84092,10.68563 -8.94295,14.81261 -4.10203,4.12697 -9.32776,7.18509 -15.00933,8.44139 -3.84317,0.8498 -7.87436,0.87217 -11.71251,0 z"
       id="path48-3-7" />
  </g>
</svg>
